<svg width="171" height="171" fill="none" xmlns="http://www.w3.org/2000/svg"><path fill="#F2F2F2" d="M0 0h171v171H0z"/><path d="M52.405 77.537h1.47c.568 0 1.072.122 1.513.366.44.243.786.587 1.037 1.03.25.44.376.956.376 1.548 0 .578-.125 1.083-.376 1.516-.251.433-.597.77-1.037 1.012-.44.24-.945.359-1.513.359h-1.47c-.57 0-1.077-.118-1.52-.355a2.623 2.623 0 01-1.037-1.009c-.25-.433-.376-.94-.376-1.52 0-.591.126-1.108.38-1.548a2.67 2.67 0 011.04-1.03c.443-.246.947-.37 1.513-.37zm0 1.115c-.346 0-.645.071-.898.213-.252.14-.446.346-.583.618-.137.272-.206.606-.206 1.001 0 .38.069.7.206.963.14.263.336.463.59.6.253.137.55.206.89.206h1.475c.343 0 .639-.069.887-.206.251-.14.444-.341.58-.604.137-.265.205-.586.205-.962 0-.39-.068-.722-.206-.994a1.417 1.417 0 00-.579-.622 1.76 1.76 0 00-.887-.213h-1.474zm1.37-2.053v7.7h-1.267v-7.7h1.268zm6.592 7.507c-.532 0-.994-.117-1.385-.351a2.388 2.388 0 01-.909-.984c-.213-.421-.32-.913-.32-1.477 0-.563.107-1.057.32-1.48.216-.425.519-.754.91-.988.39-.234.852-.352 1.384-.352.533 0 .995.118 1.385.352.39.234.693.563.906.987.215.424.323.918.323 1.481 0 .564-.108 1.056-.323 1.477-.213.422-.515.75-.906.984-.39.234-.852.352-1.385.352zm.007-1.03c.29 0 .53-.079.725-.237.194-.161.338-.377.433-.647.097-.27.146-.57.146-.901 0-.334-.049-.636-.146-.906a1.433 1.433 0 00-.433-.65 1.097 1.097 0 00-.725-.241c-.296 0-.542.08-.738.241a1.46 1.46 0 00-.437.65c-.095.27-.142.572-.142.905 0 .332.047.633.142.902.097.27.243.486.437.647.196.158.442.238.738.238zm3.087-3.476v-1.054h4.773V79.6h-1.765V84h-1.243v-4.4H63.46zm7.94 4.507c-.532 0-.993-.118-1.384-.352a2.387 2.387 0 01-.91-.984c-.212-.421-.319-.913-.319-1.477 0-.563.107-1.057.32-1.48a2.37 2.37 0 01.909-.988c.39-.234.852-.352 1.385-.352s.994.118 1.385.352c.39.234.692.563.905.987.216.424.324.918.324 1.481 0 .564-.108 1.056-.324 1.477-.213.422-.514.75-.905.984-.39.234-.852.352-1.385.352zm.008-1.03c.289 0 .53-.08.724-.238.195-.161.339-.377.434-.647.097-.27.145-.57.145-.901 0-.334-.048-.636-.145-.906a1.433 1.433 0 00-.433-.65 1.097 1.097 0 00-.725-.241c-.296 0-.542.08-.739.241a1.45 1.45 0 00-.436.65c-.095.27-.142.572-.142.905 0 .332.047.633.142.902.097.27.242.486.436.647.197.158.443.238.739.238zm6.158.923v-5.454h4.606V84h-1.24v-4.4h-2.137V84h-1.229zm8.297.106c-.533 0-.994-.117-1.385-.351a2.387 2.387 0 01-.909-.984c-.213-.421-.32-.913-.32-1.477 0-.563.107-1.057.32-1.48.216-.425.519-.754.91-.988.39-.234.851-.352 1.384-.352.533 0 .994.118 1.385.352.39.234.693.563.906.987.215.424.323.918.323 1.481 0 .564-.108 1.056-.323 1.477-.213.422-.515.75-.906.984-.39.234-.852.352-1.385.352zm.007-1.03c.289 0 .53-.079.725-.237.194-.161.338-.377.433-.647.097-.27.145-.57.145-.901 0-.334-.048-.636-.145-.906a1.433 1.433 0 00-.433-.65 1.097 1.097 0 00-.725-.241c-.296 0-.542.08-.738.241-.195.161-.34.378-.437.65-.095.27-.142.572-.142.905 0 .332.047.633.142.902.097.27.242.486.437.647.196.158.442.238.738.238zM89.56 84v-5.454h1.285v2.201h.47l1.64-2.201h1.548l-2.02 2.677L94.522 84h-1.555l-1.495-2.056h-.629V84H89.56zm7.253.11a2.26 2.26 0 01-.934-.185 1.524 1.524 0 01-.654-.554c-.158-.243-.237-.544-.237-.901 0-.308.056-.563.17-.764a1.33 1.33 0 01.465-.483 2.36 2.36 0 01.664-.273c.249-.064.506-.11.77-.139.32-.033.58-.063.779-.089.198-.028.343-.07.433-.127.092-.06.138-.15.138-.274V80.3c0-.268-.08-.475-.238-.622-.158-.147-.387-.22-.685-.22-.315 0-.565.069-.75.206-.182.137-.305.3-.369.487l-1.2-.17c.095-.332.251-.61.469-.832a2.04 2.04 0 01.799-.504c.315-.114.663-.17 1.044-.17.263 0 .524.03.785.092.26.061.498.163.713.305.216.14.389.33.519.572.133.241.199.543.199.905V84h-1.236v-.75h-.043a1.571 1.571 0 01-.33.427c-.14.13-.316.235-.529.316-.21.078-.458.117-.742.117zm.334-.945c.258 0 .481-.05.67-.152a1.13 1.13 0 00.438-.412 1.05 1.05 0 00.156-.558v-.642a.605.605 0 01-.206.092 2.914 2.914 0 01-.32.075 9.89 9.89 0 01-.351.056l-.302.043a2.248 2.248 0 00-.515.128.856.856 0 00-.359.248.608.608 0 00-.131.405c0 .237.086.416.26.536.172.121.392.181.66.181zm10.045-2.425v1.055h-2.905V80.74h2.905zm-2.507-2.194V84h-1.239v-5.454h1.239zm3.349 0V84h-1.236v-5.454h1.236zm3.705 5.56c-.547 0-1.019-.113-1.417-.34a2.309 2.309 0 01-.912-.973c-.213-.422-.32-.918-.32-1.488 0-.561.107-1.054.32-1.478.215-.426.516-.757.902-.994.386-.239.839-.359 1.36-.359.336 0 .653.055.952.164.3.106.565.272.795.497.232.225.414.511.547.86.132.345.199.757.199 1.235v.394h-4.471v-.866h3.238a1.38 1.38 0 00-.159-.657 1.16 1.16 0 00-.437-.458 1.228 1.228 0 00-.646-.167c-.263 0-.494.064-.693.192a1.318 1.318 0 00-.465.497 1.425 1.425 0 00-.167.67v.757c0 .318.058.59.174.817.116.225.278.398.487.519.208.118.452.177.731.177.187 0 .356-.026.508-.078a1.13 1.13 0 00.394-.238.996.996 0 00.252-.387l1.2.135c-.075.317-.22.594-.433.83-.21.235-.48.418-.809.548a3.11 3.11 0 01-1.13.191zm3.049-4.506v-1.054h4.772V79.6h-1.764V84h-1.243v-4.4h-1.765zm6.494 3.406l-.046.39a5.816 5.816 0 01-.177.91c-.083.31-.171.595-.263.855s-.167.465-.224.615h-.866l.135-.59c.059-.249.116-.528.17-.838a8.18 8.18 0 00.11-.945l.025-.397h1.136zM33.459 92.74v1.055h-2.905V92.74h2.905zm-2.507-2.194V96h-1.24v-5.454h1.24zm3.349 0V96h-1.236v-5.454H34.3zm3.67 5.56c-.533 0-.995-.117-1.385-.351a2.387 2.387 0 01-.91-.984c-.212-.421-.319-.913-.319-1.477 0-.563.107-1.057.32-1.48a2.37 2.37 0 01.909-.988c.39-.234.852-.352 1.385-.352.532 0 .994.118 1.385.352.39.234.692.563.905.987.215.424.323.918.323 1.481 0 .564-.108 1.056-.323 1.477-.213.422-.515.75-.906.984-.39.234-.852.352-1.384.352zm.007-1.03c.288 0 .53-.079.724-.237.194-.161.339-.377.433-.647.097-.27.146-.57.146-.901 0-.334-.049-.636-.146-.906a1.433 1.433 0 00-.433-.65 1.097 1.097 0 00-.724-.241c-.296 0-.542.08-.739.241a1.46 1.46 0 00-.437.65 2.74 2.74 0 00-.142.905c0 .332.048.633.142.902.097.27.243.486.437.647.197.158.443.238.739.238zm8.537 1.03c-.533 0-.994-.117-1.385-.351a2.388 2.388 0 01-.909-.984c-.213-.421-.32-.913-.32-1.477 0-.563.107-1.057.32-1.48.215-.425.519-.754.91-.988.39-.234.851-.352 1.384-.352.533 0 .994.118 1.385.352.39.234.693.563.906.987.215.424.323.918.323 1.481 0 .564-.108 1.056-.323 1.477-.213.422-.515.75-.906.984-.39.234-.852.352-1.385.352zm.007-1.03c.289 0 .53-.079.725-.237.194-.161.338-.377.433-.647.097-.27.145-.57.145-.901 0-.334-.048-.636-.145-.906a1.433 1.433 0 00-.433-.65 1.097 1.097 0 00-.725-.241c-.296 0-.542.08-.739.241a1.45 1.45 0 00-.436.65c-.095.27-.142.572-.142.905 0 .332.047.633.142.902.097.27.242.486.436.647.197.158.443.238.74.238zm7.434-2.336v1.055h-2.905V92.74h2.905zm-2.507-2.194V96h-1.24v-5.454h1.24zm3.349 0V96h-1.236v-5.454h1.236zm3.67 5.56c-.533 0-.995-.117-1.385-.351a2.387 2.387 0 01-.91-.984c-.212-.421-.319-.913-.319-1.477 0-.563.107-1.057.32-1.48a2.37 2.37 0 01.909-.988c.39-.234.852-.352 1.385-.352.532 0 .994.118 1.385.352.39.234.692.563.905.987.216.424.323.918.323 1.481 0 .564-.107 1.056-.323 1.477-.213.422-.515.75-.905.984-.391.234-.853.352-1.385.352zm.007-1.03c.289 0 .53-.079.724-.237a1.44 1.44 0 00.434-.647c.096-.27.145-.57.145-.901 0-.334-.048-.636-.145-.906a1.433 1.433 0 00-.434-.65 1.097 1.097 0 00-.724-.241c-.296 0-.542.08-.739.241a1.46 1.46 0 00-.437.65 2.74 2.74 0 00-.142.905c0 .332.048.633.142.902.097.27.243.486.437.647.197.158.443.238.739.238zm8.537 1.03c-.544 0-1.012-.119-1.403-.358a2.395 2.395 0 01-.898-.99c-.208-.425-.313-.912-.313-1.464 0-.554.107-1.043.32-1.467.213-.426.514-.757.902-.994.39-.239.852-.359 1.385-.359.443 0 .835.082 1.175.245a2 2 0 01.82.686c.204.293.32.637.349 1.03H68.12a1.175 1.175 0 00-.355-.657c-.185-.178-.432-.267-.742-.267-.263 0-.494.071-.693.213a1.37 1.37 0 00-.465.604 2.463 2.463 0 00-.163.945c0 .371.054.691.163.959a1.4 1.4 0 00.458.614c.2.142.432.213.7.213.19 0 .359-.036.508-.107.151-.073.278-.178.38-.316.101-.137.171-.304.21-.5h1.228a2.147 2.147 0 01-.341 1.026 2.018 2.018 0 01-.803.696c-.338.166-.736.248-1.193.248zM70.394 96v-5.454h1.286v2.201h.469l1.64-2.201h1.549l-2.021 2.677L75.359 96h-1.555l-1.496-2.056h-.628V96h-1.286zm7.838.106c-.532 0-.994-.117-1.385-.351a2.387 2.387 0 01-.909-.984c-.213-.421-.32-.913-.32-1.477 0-.563.107-1.057.32-1.48.216-.425.519-.754.91-.988.39-.234.852-.352 1.384-.352.533 0 .995.118 1.385.352.391.234.693.563.906.987.215.424.323.918.323 1.481 0 .564-.108 1.056-.323 1.477-.213.422-.515.75-.906.984-.39.234-.852.352-1.385.352zm.008-1.03c.288 0 .53-.079.724-.237.194-.161.338-.377.433-.647.097-.27.146-.57.146-.901 0-.334-.049-.636-.146-.906a1.433 1.433 0 00-.433-.65 1.097 1.097 0 00-.724-.241c-.296 0-.543.08-.74.241a1.467 1.467 0 00-.436.65c-.095.27-.142.572-.142.905 0 .332.047.633.142.902.097.27.243.486.437.647.196.158.443.238.739.238zm3.687 2.97v-7.5h1.264v.901h.075c.066-.132.16-.273.28-.422a1.49 1.49 0 01.49-.387c.207-.11.47-.164.789-.164.421 0 .801.108 1.14.324.34.213.61.529.81.948.2.416.301.928.301 1.534 0 .599-.098 1.108-.294 1.527-.197.419-.465.739-.803.959-.339.22-.722.33-1.15.33-.313 0-.572-.052-.778-.156a1.58 1.58 0 01-.498-.377 2.431 2.431 0 01-.287-.422h-.053v2.904h-1.286zm1.26-4.773c0 .353.05.661.15.927.102.265.247.472.437.621.192.147.424.22.696.22.284 0 .522-.076.713-.227a1.4 1.4 0 00.434-.629c.1-.267.149-.571.149-.912 0-.339-.049-.64-.146-.902a1.356 1.356 0 00-.433-.618c-.192-.15-.43-.224-.717-.224a1.13 1.13 0 00-.7.217 1.332 1.332 0 00-.437.607 2.63 2.63 0 00-.145.92zm7.36 2.834c-.533 0-.995-.118-1.386-.352a2.388 2.388 0 01-.909-.984c-.213-.421-.32-.913-.32-1.477 0-.563.107-1.057.32-1.48.216-.425.519-.754.91-.988.39-.234.852-.352 1.384-.352.533 0 .995.118 1.385.352.39.234.693.563.906.987.215.424.323.918.323 1.481 0 .564-.108 1.056-.323 1.477-.213.422-.515.75-.906.984-.39.234-.852.352-1.385.352zm.007-1.03c.288 0 .53-.08.724-.238.194-.161.338-.377.433-.647.097-.27.146-.57.146-.901 0-.334-.049-.636-.146-.906a1.433 1.433 0 00-.433-.65 1.097 1.097 0 00-.725-.241c-.296 0-.542.08-.738.241a1.46 1.46 0 00-.437.65c-.095.27-.142.572-.142.905 0 .332.047.633.142.902.097.27.243.486.437.647.196.158.442.238.739.238zm6.158.923v-5.454h4.605V96h-1.239v-4.4H97.94V96h-1.228zm8.297.106c-.533 0-.995-.117-1.385-.351a2.382 2.382 0 01-.909-.984c-.214-.421-.32-.913-.32-1.477 0-.563.106-1.057.32-1.48a2.37 2.37 0 01.909-.988c.39-.234.852-.352 1.385-.352.532 0 .994.118 1.385.352.39.234.692.563.905.987.215.424.323.918.323 1.481 0 .564-.108 1.056-.323 1.477-.213.422-.515.75-.905.984-.391.234-.853.352-1.385.352zm.007-1.03c.288 0 .53-.079.724-.237a1.43 1.43 0 00.433-.647c.097-.27.146-.57.146-.901 0-.334-.049-.636-.146-.906a1.428 1.428 0 00-.433-.65 1.097 1.097 0 00-.724-.241c-.296 0-.542.08-.739.241a1.46 1.46 0 00-.437.65 2.74 2.74 0 00-.142.905c0 .332.048.633.142.902.097.27.243.486.437.647.197.158.443.238.739.238zm6.912.924v-4.41h-1.165c-.296 0-.523.068-.682.206a.638.638 0 00-.234.51.63.63 0 00.223.505c.152.133.369.199.65.199h1.613v.937h-1.613c-.435 0-.812-.068-1.129-.206a1.646 1.646 0 01-.731-.582 1.526 1.526 0 01-.256-.88 1.6 1.6 0 01.259-.913 1.7 1.7 0 01.746-.604c.324-.144.709-.216 1.154-.216h2.369V96h-1.204zm-3.523 0l1.523-2.798h1.268L109.669 96h-1.264zm6.011 0v-5.454h2.29c.647 0 1.157.128 1.531.386.376.259.565.618.565 1.08a.968.968 0 01-.32.75c-.211.191-.498.32-.863.386.287.024.537.096.753.217.218.12.388.28.511.476.123.196.185.422.185.678 0 .3-.079.562-.238.785-.156.22-.385.392-.685.515-.299.12-.661.181-1.087.181h-2.642zm1.204-1.012h1.438c.237 0 .423-.056.558-.167a.574.574 0 00.202-.462c0-.224-.068-.4-.202-.529-.135-.13-.321-.195-.558-.195h-1.438v1.353zm0-2.184h1.111c.175 0 .326-.025.451-.075a.646.646 0 00.288-.216.575.575 0 00.099-.338.508.508 0 00-.23-.44c-.152-.106-.363-.16-.633-.16h-1.086v1.229zm5.738 1.456l2.184-3.715h1.321V96h-1.243v-3.718L121.443 96h-1.324v-5.454h1.239v3.714zm4.204-2.66v-1.054h4.773V91.6h-1.765V96h-1.243v-4.4h-1.765zm7.941 4.507c-.544 0-1.012-.12-1.402-.36a2.4 2.4 0 01-.899-.99c-.208-.424-.312-.911-.312-1.463 0-.554.106-1.043.319-1.467.214-.426.514-.757.902-.994.391-.239.853-.359 1.385-.359.443 0 .835.082 1.176.245.343.161.617.39.82.686.204.293.32.637.348 1.03h-1.229a1.17 1.17 0 00-.355-.657c-.184-.178-.432-.267-.742-.267a1.16 1.16 0 00-.692.213 1.37 1.37 0 00-.466.604 2.48 2.48 0 00-.163.945c0 .371.055.691.163.959.109.265.262.47.459.614.198.142.432.213.699.213.19 0 .359-.036.508-.107.151-.073.278-.178.38-.316a1.2 1.2 0 00.209-.5h1.229a2.14 2.14 0 01-.341 1.026 2.017 2.017 0 01-.802.696c-.339.166-.737.248-1.194.248zM140.11 96v-4.41h-1.165c-.296 0-.523.068-.681.206a.64.64 0 00-.235.51.63.63 0 00.224.505c.151.133.368.199.65.199h1.612v.937h-1.612c-.436 0-.812-.068-1.13-.206a1.646 1.646 0 01-.731-.582 1.533 1.533 0 01-.256-.88 1.6 1.6 0 01.26-.913c.175-.26.423-.462.745-.604.325-.144.709-.216 1.154-.216h2.369V96h-1.204zm-3.523 0l1.524-2.798h1.268L137.852 96h-1.265z" fill="#A6A6A6"/></svg>