<svg width="20" height="20" fill="none" xmlns="http://www.w3.org/2000/svg"><path d="M8.49 0a.998.998 0 00-.98.809l-.334 1.714c-.821.31-1.58.744-2.246 1.291l-1.645-.566a1 1 0 00-1.191.445L.586 6.307a1 1 0 00.209 1.255L2.113 8.71C2.045 9.13 2 9.559 2 10c0 .44.045.87.113 1.291L.795 12.437a1.004 1.004 0 00-.21 1.256l1.509 2.614a1 1 0 001.191.447l1.645-.567a7.986 7.986 0 002.246 1.29l.334 1.714c.092.47.501.809.98.809h3.02a.998.998 0 00.98-.809l.334-1.714a7.98 7.98 0 002.246-1.291l1.645.566a1 1 0 001.191-.445l1.508-2.616a1 1 0 00-.21-1.254l-1.317-1.146A8.07 8.07 0 0018 10c0-.44-.045-.87-.113-1.291l1.318-1.147c.36-.314.448-.84.209-1.255l-1.508-2.614a1 1 0 00-1.191-.447l-1.645.566a7.984 7.984 0 00-2.246-1.289L12.49.81a.998.998 0 00-.98-.81H8.49zM10 6a4 4 0 110 8 4 4 0 010-8z" fill="#595959"/></svg>