<svg width="50" height="50" fill="none" xmlns="http://www.w3.org/2000/svg"><path d="M49.08 17.8a3.619 3.619 0 00-2.203-1.178v-.002L33.59 14.785 28.33 2.22a3.609 3.609 0 00-6.66 0l-5.258 12.565L3.123 16.62a3.62 3.62 0 00-1.909 6.287l10.012 8.928-2.057 14.01a3.571 3.571 0 001.657 3.595 3.559 3.559 0 003.944-.074L25 42.41l10.23 6.963a3.612 3.612 0 005.601-3.52l-2.057-14.016 10.012-8.928a3.62 3.62 0 00.294-5.11zM35.678 29.82c-.448.4-.664.998-.577 1.592l2.143 15-11.235-7.64a1.786 1.786 0 00-2.007 0l-11.301 7.593 2.198-14.96a1.785 1.785 0 00-.577-1.585L3.61 20.163l14.299-1.973a1.785 1.785 0 001.403-1.08l5.71-13.539a.081.081 0 01.015.027l5.651 13.505c.244.583.778.993 1.404 1.08l14.317 2.06-10.73 9.576z" fill="#F66A15"/></svg>