<svg xmlns="http://www.w3.org/2000/svg" width="24" height="24" fill="none"><path fill="currentColor" fill-rule="evenodd" d="M12 1a.917.917 0 00-.917.917V8.68a.458.458 0 01-.782.324L5.518 4.222a.917.917 0 10-1.296 1.296l4.782 4.783a.458.458 0 01-.324.782H1.917a.917.917 0 000 1.834H8.68c.409 0 .613.493.325.782l-4.783 4.783a.917.917 0 001.296 1.296l4.783-4.783a.458.458 0 01.782.325v6.763a.917.917 0 101.834 0V15.32c0-.409.493-.613.782-.325l4.783 4.783a.917.917 0 001.296-1.296l-4.783-4.783a.458.458 0 01.325-.782h6.763a.917.917 0 100-1.834H15.32a.458.458 0 01-.325-.782l4.783-4.783a.917.917 0 00-1.296-1.296l-4.783 4.783a.458.458 0 01-.782-.325V1.917A.917.917 0 0012 1" clip-rule="evenodd" opacity=".5"/></svg>