<svg width="120" height="65" fill="none" xmlns="http://www.w3.org/2000/svg"><path d="M71.978 37.344v-8.511c0-.178.063-.328.19-.451a.637.637 0 01.459-.185h7.882c.177 0 .328.064.451.192.128.127.191.28.191.458v.642c0 .178-.063.33-.191.458a.614.614 0 01-.451.185h-5.954v1.99h5.127a.6.6 0 01.45.19.603.603 0 01.192.452v.642c0 .178-.064.33-.191.458a.614.614 0 01-.451.185h-5.127v2.016h5.94c.173 0 .321.062.444.185a.614.614 0 01.185.451v.656c0 .178-.064.33-.191.458a.636.636 0 01-.458.185h-7.848a.64.64 0 01-.65-.656zm9.454.013v-.656c0-.178.061-.328.184-.451a.637.637 0 01.458-.185h.533l1.272-5.174c.442-1.796 1.923-2.694 4.443-2.694h3.692c.177 0 .328.062.45.185a.603.603 0 01.192.451v8.538a.603.603 0 01-.191.451.626.626 0 01-.451.178h-9.94a.636.636 0 01-.458-.185.637.637 0 01-.184-.458zm3.807-1.292h4.847v-5.933h-2.044c-.433 0-.79.118-1.073.355-.283.237-.476.568-.581.992l-1.149 4.586zm8.572 1.306l1.716-6.508c.465-1.773 1.978-2.661 4.539-2.666h3.685c.169 0 .308.064.417.192a.646.646 0 01.171.444v8.538a.602.602 0 01-.192.451.648.648 0 01-.458.178h-1.285a.643.643 0 01-.465-.178.645.645 0 01-.177-.465v-1.722h-4.86l-.459 1.722a.82.82 0 01-.307.465.834.834 0 01-.506.178h-1.347c-.177 0-.305-.05-.383-.15-.077-.105-.116-.196-.116-.274.005-.077.014-.146.027-.205zm3.596-3.67h4.355v-3.57h-1.948c-.438 0-.82.126-1.149.377a1.81 1.81 0 00-.656.998l-.602 2.194z" fill="#000"/><path d="M54.04 58.59h-43.3a3.514 3.514 0 01-3.471-2.941L6 48.47h52.78l-1.269 7.178a3.525 3.525 0 01-3.47 2.94z" fill="#161D21"/><path d="M55.155 51.738H9.625A3.624 3.624 0 016 48.113V9.625A3.624 3.624 0 019.625 6h45.53a3.624 3.624 0 013.625 3.625v38.493a3.623 3.623 0 01-3.625 3.62z" fill="url(#paint0_linear_1305_249)"/><path d="M22.177 27.859h-9.983a2.721 2.721 0 01-2.719-2.719V11.116a2.72 2.72 0 012.72-2.719h9.982a2.72 2.72 0 012.718 2.719V25.14a2.72 2.72 0 01-2.718 2.719z" fill="#E53A35"/><path opacity=".2" d="M55.01 7.54c1.3 0 2.356 1.056 2.356 2.357V48.1c0 .086-.009.186-.022.317a1.279 1.279 0 00-.01.263l-1.214 6.87a2.095 2.095 0 01-2.075 1.757H10.74a2.102 2.102 0 01-2.08-1.771L7.445 48.68a1.7 1.7 0 00-.009-.263 2.159 2.159 0 01-.022-.317V9.897c0-1.3 1.056-2.356 2.356-2.356h45.24zm0-1.413H9.77A3.77 3.77 0 006 9.897V48.1c0 .172.014.335.036.503H6l1.269 7.177a3.518 3.518 0 003.47 2.941H54.04a3.514 3.514 0 003.471-2.94l1.269-7.178h-.036c.022-.163.036-.331.036-.503V9.897a3.77 3.77 0 00-3.77-3.77z" fill="#EEE"/><path d="M9.349 45.803V34.9a2.72 2.72 0 012.718-2.718h22.734a2.72 2.72 0 012.718 2.718v10.898a2.72 2.72 0 01-2.718 2.719H12.067a2.711 2.711 0 01-2.718-2.715zm31.777-.241V35.141a2.72 2.72 0 012.719-2.72h8.74a2.72 2.72 0 012.72 2.72v10.421a2.72 2.72 0 01-2.72 2.72h-8.74a2.718 2.718 0 01-2.719-2.72zM53.02 28.09H30.714a2.72 2.72 0 01-2.718-2.719V11.116a2.72 2.72 0 012.718-2.719h22.308a2.72 2.72 0 012.718 2.719v14.26c0 1.5-1.218 2.714-2.718 2.714z" fill="#E53A35"/><path d="M47.402 33.767h-.43v.445h.43v-.445z" fill="#A16541"/><path d="M39.06 50.452H7.319l.416-8.043c.39-5.066 4.713-9.185 9.756-9.815 1.6-.2 3.485-.322 5.7-.322 2.216 0 4.101.123 5.7.322 5.04.63 9.367 4.749 9.757 9.815l.412 8.043z" fill="url(#paint1_radial_1305_249)"/><path d="M38.072 50.805a1.948 1.948 0 100-3.897 1.948 1.948 0 000 3.897z" fill="url(#paint2_radial_1305_249)"/><path d="M38.648 43.89a1.946 1.946 0 00.167-3.08c-.299-.255-.407-.667-.34-1.052a1.948 1.948 0 00-1.921-2.28c-.009 0-.013 0-.023.005.019-.113.037-.226.037-.344a1.948 1.948 0 00-1.949-1.949 1.948 1.948 0 00-2.184-1.934c-.385.05-.752-.145-.997-.445a1.928 1.928 0 00-2.27-.552.822.822 0 01-.879-.136 1.929 1.929 0 00-2.216-.263.752.752 0 01-.888-.109 1.92 1.92 0 00-2.428-.245.855.855 0 01-.957 0 1.932 1.932 0 00-2.501.313c-.244.272-.643.354-.992.245a1.923 1.923 0 00-1.754.322c-.353.276-.793.425-1.232.33a1.946 1.946 0 00-2.311 1.54c-.082-.008-.163-.022-.245-.022a1.94 1.94 0 00-1.93 1.763h-.018a1.948 1.948 0 00-1.949 1.948v.05c.01.354-.163.675-.457.87a1.94 1.94 0 00-.875 1.618c0 .385.118.743.308 1.047-.326.348-.53.815-.53 1.332 0 .57.25 1.083.643 1.44a1.95 1.95 0 00-.647 1.446c0 .639.312 1.2.788 1.559a1.943 1.943 0 00.743 3.462 1.948 1.948 0 001.577-3.466c.476-.354.788-.92.788-1.56 0-.57-.249-1.082-.643-1.44.394-.358.648-.87.648-1.446 0-.385-.118-.743-.308-1.047.326-.348.53-.815.53-1.332a1.86 1.86 0 00-.122-.657 1.942 1.942 0 001.436-1.69h.018c.952 0 1.74-.68 1.912-1.581.082.009.163.022.245.022.748 0 1.391-.426 1.717-1.042.313.218.694.344 1.101.344a1.95 1.95 0 001.804-1.21c.33.259.743.418 1.192.418.63 0 1.187-.304 1.54-.77.358.461.911.77 1.54.77.572 0 1.08-.25 1.437-.64a1.941 1.941 0 001.736 1.08c.49 0 .933-.187 1.273-.486.34.571.956.96 1.672.96.317 0 .616-.08.88-.217a1.94 1.94 0 001.848 1.364c0 1.079.874 1.949 1.948 1.949.01 0 .014 0 .023-.005a2.18 2.18 0 00-.036.345c0 .842.539 1.554 1.287 1.826-.186.299-.3.648-.3 1.024 0 .874.58 1.604 1.369 1.853a1.946 1.946 0 00.68 3.512 1.953 1.953 0 002.37-1.903c.018-.875-.562-1.605-1.355-1.854z" fill="url(#paint3_radial_1305_249)"/><path d="M22.915 38.435c1.296 0 2.347-.86 2.347-1.922 0-1.06-1.05-1.92-2.347-1.92-1.296 0-2.347.86-2.347 1.92 0 1.062 1.05 1.922 2.347 1.922z" fill="#B0BEC5"/><path d="M22.915 37.628c1.296 0 2.347-.86 2.347-1.921s-1.05-1.921-2.347-1.921c-1.296 0-2.347.86-2.347 1.92 0 1.062 1.05 1.922 2.347 1.922z" fill="url(#paint4_radial_1305_249)"/><path opacity=".2" d="M14.597 44.395c.059-.366-.5-.76-1.245-.878-.747-.12-1.4.08-1.458.446-.058.366.5.759 1.246.878.746.12 1.399-.08 1.457-.447zm2.952 2.375c.058-.366-.367-.738-.95-.831-.584-.093-1.104.128-1.162.494-.059.365.367.737.95.83.583.094 1.103-.127 1.162-.493zm-7.242-3.653c.635-.41.986-.995.785-1.306-.201-.31-.879-.23-1.513.18-.635.41-.986.996-.785 1.307.201.31.879.23 1.513-.18z" fill="#B0BEC5"/><path opacity=".2" d="M10.912 47.102c.162-.333-.167-.827-.734-1.102-.567-.276-1.158-.23-1.32.103-.162.333.166.827.733 1.103.568.276 1.159.23 1.32-.104zm2.67 1.86c.545-.316.837-.832.651-1.153-.185-.32-.778-.323-1.324-.007s-.837.832-.652 1.153c.186.32.779.324 1.325.007z" fill="#90A4AE"/><path opacity=".2" d="M36.162 45.535c.746-.119 1.304-.512 1.245-.878-.058-.365-.71-.565-1.457-.446-.746.119-1.304.512-1.245.878.058.365.71.565 1.457.446zm-5.456 1.745c.747-.12 1.305-.513 1.246-.879-.058-.365-.71-.565-1.457-.446-.746.119-1.304.512-1.246.878.059.366.711.566 1.457.446zm6.889-5.386c.201-.311-.15-.896-.785-1.307-.634-.41-1.312-.491-1.513-.18-.201.31.15.896.785 1.306.634.41 1.312.492 1.513.18z" fill="#B0BEC5"/><path opacity=".2" d="M35.693 48.958c.186-.32-.106-.836-.651-1.153-.546-.316-1.139-.313-1.325.008-.185.32.106.837.652 1.153.545.316 1.138.313 1.324-.008z" fill="#90A4AE"/><path opacity=".2" d="M21.96 48.62c.076-.363-.361-.763-.978-.894-.617-.13-1.18.057-1.256.42-.077.362.36.761.977.892s1.18-.057 1.257-.419zm2.108-2.336c.842-.046 1.508-.383 1.488-.753-.02-.37-.719-.632-1.561-.586-.842.045-1.509.382-1.489.752.02.37.72.633 1.562.587zm-3.164-1.022c.578-.252.926-.732.778-1.072-.148-.339-.737-.41-1.315-.157-.578.252-.926.731-.778 1.07.148.34.737.411 1.315.159zm-2.582-1.985c.137-.344-.226-.812-.812-1.046-.586-.233-1.172-.143-1.31.201-.136.344.227.812.813 1.046.586.233 1.172.143 1.31-.201z" fill="#B0BEC5"/><path opacity=".2" d="M15.471 40.538c.111-.62-.095-1.177-.46-1.242-.364-.065-.75.386-.86 1.006-.111.621.095 1.177.46 1.242.364.066.75-.385.86-1.006zm6.894.954c.056-.366-.404-.74-1.028-.835-.623-.095-1.174.125-1.23.49-.056.367.404.74 1.028.836.623.095 1.174-.125 1.23-.49z" fill="#D0D8DC"/><path opacity=".2" d="M33.018 40.142c.538-.329.819-.851.626-1.167-.193-.317-.786-.307-1.324.021-.539.328-.819.851-.626 1.167.193.317.785.307 1.324-.021zm-20.639-.554c.137-.344-.227-.812-.813-1.046-.586-.233-1.172-.143-1.309.201s.227.812.813 1.045c.586.234 1.172.144 1.309-.2z" fill="#B0BEC5"/><path opacity=".2" d="M27.225 48.976c.56-.29.877-.79.707-1.12-.17-.329-.762-.361-1.322-.072s-.877.79-.707 1.12c.17.329.761.361 1.322.072z" fill="#90A4AE"/><path opacity=".2" d="M27.84 41.511c.719-.231 1.21-.705 1.097-1.057-.114-.353-.789-.45-1.508-.22-.72.232-1.21.706-1.097 1.058.113.353.788.45 1.508.22zm4.999-5.029c.175-.326-.222-.88-.887-1.24-.665-.358-1.347-.384-1.523-.058-.175.326.222.88.887 1.24.665.358 1.347.384 1.523.058zm-18.917.549c.436-.302.619-.793.408-1.098-.21-.304-.735-.306-1.171-.004-.437.302-.62.794-.408 1.098.21.305.735.307 1.171.004zm4.351 3.088c.436-.302.619-.794.407-1.099-.21-.304-.735-.306-1.171-.004-.436.302-.619.794-.408 1.099.211.304.736.306 1.172.004zm11.064-1.941c.436-.302.619-.793.408-1.098-.211-.304-.736-.306-1.172-.004-.436.302-.618.794-.407 1.098.21.305.735.306 1.171.004zm-.81-4.039c.137-.345-.152-.783-.645-.978-.493-.196-1.004-.076-1.14.268-.137.344.152.782.645.978.493.196 1.003.076 1.14-.268zm-11.44 2.444c.504-.168.817-.589.7-.94-.118-.352-.62-.5-1.124-.332-.503.168-.816.589-.699.94.117.351.62.5 1.123.332zm2.73-3.186c.038-.368-.358-.711-.886-.766-.528-.054-.987.2-1.025.568-.038.369.359.712.887.766.527.055.986-.2 1.024-.568z" fill="#D0D8DC"/><path opacity=".2" d="M32.596 43.619c.72-.234 1.209-.71 1.094-1.061-.114-.352-.79-.449-1.508-.215-.72.234-1.209.709-1.094 1.06.114.353.79.45 1.508.216zm-3.39 1.262c.172-.328-.232-.878-.901-1.229-.67-.35-1.352-.369-1.523-.04-.172.327.231.878.9 1.228.67.351 1.352.37 1.524.041z" fill="#B0BEC5"/><path opacity=".1" d="M20.073 37.234c.718-.233 1.208-.709 1.094-1.06-.115-.353-.79-.449-1.51-.215-.718.233-1.208.708-1.093 1.06.114.353.79.449 1.509.215z" fill="#D0D8DC"/><path d="M23.945 12.883c.377.965.377 3.027.377 3.027s-3.752.983-7.237.983c-3.417 0-7.21-.983-7.21-.983s0-1.962.35-3.027c.698-2.12 2.864-4.01 6.86-4.01 3.997 0 6.045 1.921 6.86 4.01z" fill="url(#paint5_radial_1305_249)"/><path d="M24.32 15.61c0 2.217-1.813 3.712-7.236 3.712-5.425 0-7.237-1.495-7.237-3.711 0-2.216 3.24-4.01 7.237-4.01 3.996 0 7.236 1.794 7.236 4.01z" fill="url(#paint6_linear_1305_249)"/><path d="M22.43 14.686l.889-.344-.331-.943-.72 1.043.162.244zm-.824-.158l.095-.807-.435-.412-.177 1.232.517-.013zm-4.736-.616l.1-.812-.435-.412-.013.62-.01.617.358-.014zm-1.418-.092l.335.105.073-.766-.494-.185.086.847zm-2.506.354l.132-.648-.816-.217.118 1.142.566-.277z" fill="#568B3E"/><path d="M22.095 12.992c-.512-.363-.92.167-.816.421.064.159.213.258.168.444-.045.186-.195.213-.462.195a.547.547 0 01-.503-.453c-.181-.91-.743-1.11-1.165-.902-.344.172.037.499-.276.626-.363.144-.571.058-.743-.146-.132-.154.04-.412-.218-.73-.426-.53-1.459-.207-1.563.16-.104.367.24.385.254.702.013.317-.59.49-.893.362-.625-.258.032-.23-.023-.634-.077-.553-.865-.38-1.046-.272-.48.286-.304.53-.422.707-.28.408-.702.186-.92.059-.217-.127-.262-.666-.933-.462-.458.14-.267.466-.082.67a.189.189 0 01-.063.3c-.44.194-.78-.1-1.02-.236-.285-.159-.706-.136-.906.077-.235.258.499.403.209.661-.24.213-.562-.113-.626-.204-.371-.498-.987.576-.489.694.494.118.399.557.308.707-.181.303-.53-.422-.417.81.077.866.698 1.328 1.151 1.632.603.408 11.732 1.001 13.272.068.385-.236 1.446-1.722 1.17-2.266-.413-.797-.467.222-.73-.077-.571-.652.303-.72.158-1.11-.154-.421-.285-.072-.44-.231-.221-.231-.135-.367-.026-.526.113-.167-.48-.707-.875-.707-.39 0 .073.476-.177.603-.249.127-.412.014-.68-.244-.267-.245.128-.485-.176-.698z" fill="url(#paint7_linear_1305_249)"/><path d="M23.945 18.33c.377.965.377 3.026.377 3.026s-3.752.984-7.237.984c-3.417 0-7.21-.984-7.21-.984s0-1.962.35-3.026c.698-2.121 2.864-4.01 6.86-4.01 3.997 0 6.045 1.92 6.86 4.01z" fill="url(#paint8_radial_1305_249)"/><path d="M24.32 21.057c0 2.216-1.813 3.712-7.236 3.712-5.425 0-7.237-1.496-7.237-3.712 0-2.215 3.24-4.01 7.237-4.01 3.996 0 7.236 1.795 7.236 4.01z" fill="url(#paint9_linear_1305_249)"/><path d="M14.911 15.582c.374-.07.647-.286.61-.483-.036-.196-.369-.3-.743-.23-.374.07-.647.286-.61.483.036.197.37.3.743.23zm2.014-.376c.38-.029.675-.214.66-.414-.015-.2-.335-.338-.715-.309-.379.03-.674.214-.659.414.015.2.335.338.715.31z" fill="#FDD836"/><path d="M16.328 15.908c.379-.029.674-.214.659-.413-.016-.2-.335-.338-.715-.31-.379.03-.674.215-.659.414.015.2.335.338.715.31zm2.705-.201c.005-.2-.299-.37-.68-.38-.38-.01-.692.145-.697.345-.005.2.3.37.68.38.38.01.692-.145.697-.345z" fill="#F9BF2C"/><path d="M17.219 16.376c.38-.019.68-.197.67-.397-.01-.2-.327-.346-.707-.327-.38.02-.68.197-.67.397.01.2.327.346.707.327zm2.551-1.294c.029-.198-.253-.403-.63-.458-.376-.055-.704.061-.733.26-.029.197.253.402.63.457.376.055.704-.06.733-.259z" fill="#FDD836"/><path d="M13.93 16.344c.345-.158.559-.434.475-.616-.083-.182-.43-.202-.777-.044-.346.159-.559.434-.476.616.084.182.432.202.778.044zm4.477.558c.38 0 .688-.162.688-.362 0-.2-.308-.363-.688-.363-.38 0-.69.163-.69.363 0 .2.31.362.69.362zm2.055-1.122c.012-.2-.285-.38-.665-.403-.38-.023-.698.12-.71.32-.012.2.286.38.666.404.38.023.697-.12.71-.32z" fill="#F9BF2C"/><path d="M13.619 17.246c.36-.122.6-.374.537-.564-.064-.19-.408-.245-.769-.123-.36.121-.6.374-.537.563.064.19.408.245.769.124zm7.147-.594c.033-.198-.246-.407-.621-.469-.376-.06-.706.05-.738.247-.032.198.246.408.621.469.376.061.706-.05.738-.247zm1.57.663c.078-.185-.142-.455-.493-.603-.35-.149-.697-.12-.775.065-.079.184.142.454.492.602.35.149.698.12.776-.064zm-.498-1.2c.06-.191-.186-.438-.549-.552-.363-.114-.706-.05-.765.14-.06.191.186.438.549.552.363.114.705.051.765-.14zm-9.156.211c.328-.194.51-.49.408-.663-.101-.172-.45-.155-.777.039s-.51.49-.408.663c.102.172.45.155.777-.039zm-.447 1.066c.328-.194.51-.49.409-.663-.102-.172-.45-.155-.778.039-.327.194-.51.49-.408.662.102.173.45.155.777-.038z" fill="#F9A823"/><path d="M23.278 20.364l-.095-.811.434.09-.113 1.11-.226-.389zm-11.655-.077l-.888-.349.331-.938.72 1.042-.163.245zm.825-.159l-.095-.81.43-.413.182 1.237-.517-.014zm4.731-.62l-.095-.807.434-.412.01.616.009.616-.358-.013zm1.418-.091l-.33.104-.073-.765.494-.186-.091.847zm2.51.353l-.136-.643.816-.222-.113 1.142-.567-.277z" fill="#568B3E"/><path d="M11.956 18.588c.512-.363.92.168.815.421-.063.159-.213.258-.167.444.045.181.194.213.462.195a.548.548 0 00.503-.453c.181-.91.743-1.11 1.164-.902.345.172-.036.499.277.626.362.145.57.058.743-.145.131-.155-.041-.413.217-.73.426-.53 1.46-.208 1.564.159.104.367-.24.385-.254.702-.014.317.589.49.892.362.626-.258-.031-.23.023-.634.077-.553.866-.38 1.047-.272.48.286.303.53.421.707.281.408.703.186.92.059.218-.127.263-.666.934-.462.457.14.267.467.081.67a.189.189 0 00.064.3c.44.194.779-.1 1.02-.236.285-.159.706-.136.905.077.236.258-.498.403-.208.662.24.212.562-.114.625-.204.372-.499.93.43.49.693-.558.335.217.376.217.548.005 1.468-.657 2.193-1.26 2.601-.602.408-11.731 1.002-13.272.068-.661-.403-1.078-2.275-.652-2.646.421-.372-.086-.413.059-.807.154-.421.285-.072.44-.23.221-.232.135-.368.027-.527-.114-.167.48-.706.874-.706.39 0-.072.475.177.602s.412.014.68-.244c.262-.245-.127-.485.172-.698z" fill="url(#paint10_linear_1305_249)"/><path opacity=".5" d="M23.445 23.785c-.625.403-11.391 1.092-13.272.068-.788-.43-.824-2.284-.824-2.284l.34-.657s.48 1.006.865 1.147c.385.14-.426-2.27-.426-2.27s1.382 1.984 1.93 2.039c.549.054.444-2.18.444-2.18s.807 3.036 1.278 3.063c.476.027.38-3.317.775-3.661.39-.344 1.142 4.137 1.618 4.364.476.222.349-3.888.815-4.364.535-.54.114 3.516.956 3.743.825.226.644-3.254 1.577-3.471.503-.118-.208 3.358.503 3.47 1.215.196 1.455-2.777 2.112-2.985.417-.132-.027 2.746.249 2.959.362.276 2.32-1.441 2.32-1.441s.045 1.617-1.26 2.46z" fill="url(#paint11_linear_1305_249)"/><path d="M23.945 24.28c.377.964.377 3.026.377 3.026s-3.752.983-7.237.983c-3.417 0-7.21-.983-7.21-.983s0-1.962.35-3.027c.698-2.12 2.864-4.01 6.86-4.01 3.997 0 6.045 1.921 6.86 4.01z" fill="url(#paint12_radial_1305_249)"/><path d="M24.32 27.002c0 2.216-2.026 1.387-7.45 1.387-5.423 0-7.023.83-7.023-1.387 0-2.215 3.24-4.01 7.237-4.01 3.996 0 7.236 1.8 7.236 4.01z" fill="url(#paint13_linear_1305_249)"/><path d="M22.43 26.087l.889-.344-.331-.938-.72 1.037.162.245zm-.824-.154l.095-.811-.435-.413-.177 1.233.517-.009zm-4.736-.621l.1-.806-.435-.413-.013.617-.01.616.358-.014zm-1.418-.09l.335.104.073-.766-.494-.186.086.848zm-2.506.353l.132-.648-.816-.218.118 1.142.566-.276z" fill="#568B3E"/><path d="M22.095 24.392c-.512-.362-.92.168-.816.422.064.158.213.258.168.444-.045.181-.195.213-.462.195a.547.547 0 01-.503-.453c-.181-.911-.743-1.11-1.165-.902-.344.172.037.498-.276.625-.363.145-.571.06-.743-.145-.132-.154.04-.412-.218-.73-.426-.53-1.459-.208-1.563.16-.104.366.24.384.254.702.013.317-.59.489-.893.362-.625-.258.032-.231-.023-.634-.077-.553-.865-.38-1.046-.272-.48.285-.304.53-.422.707-.28.407-.702.185-.92.059-.217-.127-.262-.666-.933-.463-.458.14-.267.467-.082.671a.189.189 0 01-.063.3c-.44.194-.78-.1-1.02-.237-.285-.158-.706-.136-.906.078-.235.258.499.403.209.661-.24.213-.562-.113-.626-.204-.371-.498-.928.43-.489.693.557.336-.217.377-.217.549-.005 1.468.657 2.193 1.26 2.6.602.409 11.73 1.002 13.271.069.662-.404 1.079-2.275.653-2.647-.422-.371.086-.412-.06-.806-.153-.422-.285-.073-.439-.231-.222-.231-.136-.367-.027-.526.113-.168-.48-.707-.874-.707-.39 0 .072.476-.177.603-.25.127-.412.014-.68-.245-.263-.244.132-.485-.172-.698z" fill="url(#paint14_linear_1305_249)"/><path opacity=".5" d="M24.75 28.792l-14.876-.086-.838-2.746s.358.077.838.272.476.857.861.997 0-1.899 0-1.899 1.25 2.465 1.8 2.52c.547.054-.069-2.715-.069-2.715s.843 2.017 1.319 2.049c.476.031.303-2.289.697-2.633.39-.344 1.22 3.113 1.695 3.34.476.222.313-2.746.78-3.222.534-.54.15 2.374.992 2.6.825.227.54-2.324 1.473-2.541.502-.118-.1 2.428.607 2.542 1.214.195 1.59-1.564 2.247-1.772.417-.131-.163 1.531.118 1.744.363.277 2.166-1.463 2.166-1.463l.19 3.013z" fill="url(#paint15_linear_1305_249)"/><path d="M14.643 10.122c.405-.03.72-.228.703-.44-.016-.212-.357-.359-.761-.328-.404.03-.719.228-.703.44.017.212.357.359.761.328z" fill="#FDD836"/><path d="M15.639 10.57c.379-.028.674-.213.659-.413-.016-.2-.335-.338-.715-.31-.379.03-.674.215-.659.415.015.2.335.338.715.309z" fill="#F9BF2C"/><path d="M17.622 9.754c.006-.213-.319-.394-.724-.404-.405-.01-.738.154-.743.367-.006.212.318.393.724.403.405.01.738-.153.743-.366z" fill="#FDD836"/><path d="M19.717 10.226c.005-.2-.3-.37-.68-.38-.38-.01-.692.145-.697.345-.005.2.299.37.679.38.38.01.693-.144.698-.345z" fill="#F9BF2C"/><path d="M17.219 10.898c.38-.02.68-.197.67-.397-.01-.2-.327-.346-.707-.327-.38.02-.68.197-.67.397.01.2.327.346.707.327z" fill="#FDD836"/><path d="M13.93 10.865c.346-.158.56-.434.476-.616-.083-.182-.431-.201-.777-.043-.346.158-.56.434-.476.616.083.182.431.201.777.043z" fill="#F9BF2C"/><path d="M13.62 11.768c.36-.122.6-.374.536-.564-.064-.19-.408-.245-.769-.123-.36.121-.6.373-.536.563.064.19.408.245.768.124zm7.147-.595c.032-.197-.246-.407-.622-.469-.375-.06-.706.05-.738.247-.032.198.246.408.622.469.375.061.706-.05.738-.247zm1.072-.537c.06-.19-.186-.438-.55-.552-.362-.113-.705-.05-.765.14-.06.192.186.439.55.552.362.114.705.051.765-.14zm-9.157.212c.328-.194.51-.49.409-.663-.102-.173-.45-.155-.778.038-.327.194-.51.49-.408.663.102.173.45.155.777-.038zm-.447 1.065c.328-.194.51-.49.409-.662-.102-.173-.45-.155-.778.038-.327.194-.51.49-.408.663.102.172.45.155.777-.039z" fill="#F9A823"/><path d="M15.553 21.337c.38-.03.674-.214.66-.414-.016-.2-.336-.338-.715-.309-.38.029-.675.214-.66.414.016.2.336.338.715.309z" fill="#FDD836"/><path d="M15.639 22.044c.38-.03.674-.215.66-.414-.016-.2-.336-.338-.715-.31-.38.03-.675.215-.66.415.016.2.336.338.715.309z" fill="#F9BF2C"/><path d="M18.345 20.991c.005-.2-.299-.37-.68-.38-.38-.01-.692.145-.697.345-.005.2.3.37.68.38.38.01.692-.144.697-.345z" fill="#FDD836"/><path d="M19.72 21.697c.005-.2-.299-.37-.68-.38-.38-.01-.692.145-.697.345-.005.2.299.37.68.38.38.01.692-.145.697-.345z" fill="#F9BF2C"/><path d="M17.219 22.37c.38-.018.68-.196.67-.396-.01-.2-.327-.346-.707-.327-.38.019-.68.197-.67.397.01.2.327.346.707.327zm2.554-1.296c.03-.198-.252-.403-.629-.458-.376-.055-.705.06-.733.259-.03.198.252.403.629.458.376.055.705-.061.733-.26z" fill="#FDD836"/><path d="M13.93 22.339c.347-.159.56-.434.477-.616-.084-.182-.431-.202-.777-.044-.347.158-.56.434-.476.616.083.182.43.202.777.044z" fill="#F9BF2C"/><path d="M13.62 23.24c.36-.121.6-.373.537-.563-.064-.19-.408-.245-.769-.124-.36.122-.6.374-.537.564.064.19.408.245.769.123zm7.15-.596c.032-.198-.246-.408-.621-.469-.376-.061-.706.05-.738.247-.033.198.246.407.621.469.375.06.706-.05.738-.247zm2.14.676c.072-.187-.156-.45-.51-.59-.354-.138-.7-.1-.773.087-.073.186.155.45.509.589.354.139.7.1.773-.086zm-1.068-1.213c.06-.19-.186-.438-.549-.552-.363-.113-.706-.05-.766.14-.06.191.186.439.55.552.362.114.705.051.765-.14zm-9.158.213c.328-.193.51-.49.409-.662-.102-.173-.45-.155-.778.038-.327.194-.51.49-.408.663.102.172.45.155.777-.039zm-.622 1.293c.327-.194.51-.49.408-.663-.102-.172-.45-.155-.777.039-.328.194-.51.49-.409.662.102.173.45.155.778-.038z" fill="#F9A823"/><path d="M54.897 35.1c-.123-1.02-1.106-.925-1.174-.907-.167-.39-.693-.435-1.142-.435-.213 0-.467.064-.698.173a.903.903 0 01-.779 0 1.718 1.718 0 00-.698-.173c-.213 0-.466.064-.698.173a.903.903 0 01-.779 0 1.718 1.718 0 00-.698-.173c-.213 0-.467.064-.698.173a.903.903 0 01-.779 0 1.718 1.718 0 00-.698-.173c-.213 0-.466.064-.698.173a.903.903 0 01-.779 0 1.718 1.718 0 00-.698-.173c-.453 0-1.07.064-1.237.458-.072-.018-.815.154-1.051.802a2.359 2.359 0 00-.471 1.418v9.543a2.379 2.379 0 002.379 2.38h9.416a2.379 2.379 0 002.378-2.38v-9.552c.01-.489-.14-.947-.398-1.327z" fill="url(#paint16_linear_1305_249)"/><path opacity=".2" d="M45.444 38.199c-.23.063-.937.308-1.16.276-.847-.127-1.54-.73-1.794-1.2-.213-.4.72-.449.793-.322.39.707 1.59.172 2.107.213.866.068 1.505.625.054 1.033z" fill="#434343"/><path d="M46.038 37.619s-.172.218-1.237.209l-2.633-2.14c-.19-.162.182-.452.413-.58l.145-.076a.54.54 0 01.394-.046l3.394.898c.258.068.385.303.272.502l-.598 1.088a.384.384 0 01-.15.145z" fill="#F47C20"/><path d="M44.715 37.814l-1.912-.426a.298.298 0 01-.218-.172l-.53-1.527c-.068-.195.168-.372.403-.304l3.082.902c.163.05.244.195.185.326l-.466.979c-.077.177-.317.272-.544.222z" fill="#F37021"/><path opacity=".2" d="M45.748 41.425c.218.086.177.458 1.319.399s2.18-.362 2.501-.956c.213-.399-.72-.449-.793-.322-.39.707-1.59.172-2.107.213-.87.073-1.242.544-.92.666z" fill="#434343"/><path d="M46.45 41.394l2.683-.671.181-.992-.77-.617a.644.644 0 00-.344-.14l-2.03-.19c-.24.077-.644.598-.54.829l.136 1.413.684.368z" fill="#F47C20"/><path d="M46.8 41.38l2.12-.449a.474.474 0 00.335-.271l.172-.39a.475.475 0 00-.394-.666l-2.238-.2a.477.477 0 00-.517.449l-.054 1.038a.477.477 0 00.575.489z" fill="#F37021"/><path opacity=".2" d="M51.254 45.734c.217.087.176.458 1.318.4 1.142-.06 2.18-.363 2.501-.957.213-.399-.72-.448-.792-.322-.39.707-1.591.173-2.108.213-.87.068-1.237.54-.92.666z" fill="#434343"/><path d="M51.956 45.703l2.682-.67.182-.993-.77-.617a.644.644 0 00-.345-.14l-2.293.349c-.24.077-.643.598-.539.83l.394.874.689.367z" fill="#F47C20"/><path d="M52.31 45.69l2.12-.45a.474.474 0 00.335-.271l.172-.39a.475.475 0 00-.394-.666l-2.555.168a.477.477 0 00-.517.448l.258.67a.48.48 0 00.58.49z" fill="#F37021"/><path opacity=".2" d="M46.75 47.524c-.218.086-.177.458-1.32.4-1.14-.06-2.179-.363-2.5-.957-.213-.399.72-.449.793-.322.39.707 1.59.172 2.107.213.87.068 1.237.54.92.666z" fill="#434343"/><path d="M46.047 47.488l-2.682-.67-.182-.993.77-.616a.643.643 0 01.345-.14l2.293.348c.24.077.643.599.54.83l-.395.874-.689.367z" fill="#F47C20"/><path d="M45.694 47.479l-2.12-.449a.474.474 0 01-.336-.272l-.172-.39a.475.475 0 01.394-.665l2.556.167a.477.477 0 01.516.449l-.258.67a.482.482 0 01-.58.49z" fill="#F37021"/><path d="M43.569 37.972c.104.204.407.35.407.35l1.156-.227s.127-.104.181-.168c.195-.23-.299-1.414-.929-1.128-.63.285-1.001.806-.815 1.173z" fill="#FCB316"/><path d="M44.093 37.982c.226-.066.39-.188.364-.275-.025-.087-.228-.104-.454-.039s-.39.188-.364.275c.025.086.228.104.454.039z" fill="#F78F1E"/><path d="M49.83 41.076c-.362-.326-.71-.154-1.078.055a1.152 1.152 0 00-.53.62c-.095.286.789 1.215 1.273.717.485-.499.644-1.12.336-1.392z" fill="#FCB316"/><path d="M49.532 41.514c.187-.142.295-.316.24-.388-.054-.071-.25-.014-.438.128-.187.143-.295.316-.24.388.055.072.25.014.438-.128z" fill="#F78F1E"/><path d="M51.648 47.542c.163.458.548.48.97.476.249-.004.543-.081.765-.285.222-.204-.104-1.441-.766-1.242-.666.2-1.105.662-.97 1.051z" fill="#FCB316"/><path d="M52.165 47.627c.233-.034.411-.134.398-.223-.013-.09-.212-.134-.445-.1s-.41.134-.398.223c.013.09.213.134.445.1z" fill="#F78F1E"/><path d="M41.194 45.11c.163.457.548.48.97.475.25-.005.544-.082.766-.285.222-.204-.105-1.441-.766-1.242-.666.195-1.106.661-.97 1.051z" fill="#FCB316"/><path d="M41.712 45.193c.233-.034.41-.134.398-.223-.013-.09-.213-.134-.445-.1-.233.034-.411.134-.398.223.013.09.212.134.445.1z" fill="#F78F1E"/><path opacity=".2" d="M53.13 37.084c.397 0 .72-.172.72-.385 0-.212-.323-.385-.72-.385-.398 0-.72.172-.72.385 0 .213.322.385.72.385z" fill="#434343"/><path d="M53.12 36.676a.72.72 0 100-1.44.72.72 0 000 1.44z" fill="url(#paint17_radial_1305_249)"/><path opacity=".2" d="M43.727 41.702c.398 0 .72-.173.72-.385 0-.213-.322-.386-.72-.386-.398 0-.72.173-.72.386 0 .212.322.385.72.385z" fill="#434343"/><path d="M43.718 41.29a.72.72 0 100-1.442.72.72 0 000 1.441z" fill="url(#paint18_radial_1305_249)"/><path opacity=".2" d="M51.711 42.758c.398 0 .72-.173.72-.386 0-.212-.322-.385-.72-.385-.398 0-.72.173-.72.385 0 .213.322.386.72.386z" fill="#434343"/><path d="M51.702 42.35a.72.72 0 100-1.441.72.72 0 000 1.44z" fill="url(#paint19_radial_1305_249)"/><path opacity=".2" d="M49.056 47.651c.398 0 .72-.172.72-.385 0-.213-.322-.385-.72-.385-.398 0-.72.172-.72.385 0 .213.322.385.72.385z" fill="#434343"/><path d="M49.047 47.243a.72.72 0 100-1.44.72.72 0 000 1.44z" fill="url(#paint20_radial_1305_249)"/><path opacity=".2" d="M53.225 39.341c0 .303-.358.44-1.278.34-.653-.068-.884.018-.884-.286 0-.303-.022-1.065.911-1.187.934-.118 1.25.68 1.25 1.133z" fill="#434343"/><path d="M52.028 38.879c.53.018 1.083.562 1.106.525.054-.081-.04-.888-.181-.974l-.916-.544a.24.24 0 00-.321.078l-.549.738.023.761c.286.073.308-.602.838-.584z" fill="#AF5C2B"/><path d="M51.87 39.472c.068.023.344.114.516.1.254-.023.286-.109.571-.086.268.023.195-.19.01-.3l-.916-.543a.24.24 0 00-.322.077l-.548.739c.394.145.471-.064.689.013z" fill="#8B4A22"/><path d="M51.915 38.57h-.009a.117.117 0 01-.118-.117v-.444c0-.068.055-.118.118-.118h.01c.067 0 .117.054.117.118v.444c.005.063-.05.118-.118.118z" fill="#C56E39"/><path opacity=".2" d="M49.853 37.61c0 .304-.358.44-1.277.34-.653-.068-.884.018-.884-.286 0-.303-.023-1.065.91-1.187.934-.118 1.251.68 1.251 1.133z" fill="#434343"/><path d="M48.657 37.148c.53.018 1.083.562 1.106.525.054-.081-.041-.888-.181-.974l-.916-.543a.24.24 0 00-.322.077l-.548.738.023.761c.285.073.308-.602.838-.584z" fill="#AF5C2B"/><path d="M48.499 37.741c.068.023.344.114.516.1.254-.023.286-.109.571-.086.267.023.195-.19.01-.3l-.916-.543a.24.24 0 00-.322.077l-.548.739c.399.145.471-.064.689.013z" fill="#8B4A22"/><path d="M48.548 36.84h-.009a.117.117 0 01-.117-.118v-.444c0-.068.054-.118.117-.118h.01c.067 0 .117.054.117.118v.444a.117.117 0 01-.118.118z" fill="#C56E39"/><path opacity=".2" d="M46.242 43.537c0 .303-.358.44-1.278.34-.652-.068-.883.018-.883-.286 0-.303-.023-1.065.91-1.187.934-.113 1.251.684 1.251 1.133z" fill="#434343"/><path d="M45.041 43.075c.53.018 1.083.562 1.106.525.054-.081-.04-.888-.181-.974l-.916-.544a.24.24 0 00-.321.077l-.549.739.023.761c.29.073.308-.602.838-.584z" fill="#AF5C2B"/><path d="M44.887 43.668c.068.023.345.114.517.1.253-.023.285-.109.57-.086.268.023.196-.19.01-.3l-.916-.543a.24.24 0 00-.321.077l-.549.739c.395.145.472-.064.69.013z" fill="#8B4A22"/><path d="M44.932 42.771h-.009a.117.117 0 01-.117-.118v-.444c0-.068.054-.118.117-.118h.01c.067 0 .117.055.117.118v.444c0 .064-.05.118-.117.118z" fill="#C56E39"/><path opacity=".2" d="M52.15 19.363c0-2.094-2.809-3.788-6.28-3.788-3.466 0-6.28 1.694-6.28 3.788 0 .756.372 1.459 1.006 2.052-1.06.934-1.717 2.193-1.717 3.58 0 2.882 2.81 5.22 6.28 5.22 3.467 0 6.28-2.338 6.28-5.22 0-1.101-.412-2.12-1.11-2.963 1.124-.685 1.822-1.627 1.822-2.67z" fill="#212121"/><path d="M45.413 30.306c2.975 0 5.388-2.088 5.388-4.663s-2.413-4.663-5.388-4.663c-2.976 0-5.388 2.088-5.388 4.663s2.412 4.663 5.388 4.663z" fill="#1E5F30"/><path d="M45.413 29.807c2.975 0 5.388-2.087 5.388-4.662 0-2.576-2.413-4.663-5.388-4.663-2.976 0-5.388 2.087-5.388 4.663 0 2.575 2.412 4.662 5.388 4.662z" fill="#4D803B"/><path d="M45.413 28.87c2.45 0 4.436-1.72 4.436-3.839 0-2.12-1.986-3.838-4.436-3.838s-4.436 1.719-4.436 3.838c0 2.12 1.986 3.838 4.436 3.838z" fill="#B7CE7A"/><path d="M45.413 27.773c1.75 0 3.167-1.228 3.167-2.742s-1.418-2.741-3.167-2.741c-1.75 0-3.167 1.227-3.167 2.741s1.418 2.742 3.167 2.742z" fill="#B3CA62"/><path d="M51.054 8.764c.884 1.437.172 3.494-1.59 4.595-1.763 1.1-3.91.834-4.799-.603-.883-1.436-.172-3.493 1.59-4.595 1.763-1.1 3.916-.833 4.8.603z" fill="#568B3E"/><path opacity=".2" d="M51.639 24.07c-.494 1.455-3.186 1.854-6.009.884-2.827-.97-4.717-2.936-4.223-4.39.494-1.455 3.186-1.854 6.009-.884 2.823.97 4.717 2.936 4.223 4.39z" fill="#212121"/><path d="M47.638 13.327c-.762-2.873-3.159-4.722-5.356-4.132-2.198.589-3.362 3.398-2.597 6.266.762 2.873 3.159 4.722 5.356 4.133 2.198-.59 3.358-3.394 2.597-6.267z" fill="#1E5F30"/><path d="M45.467 19.48c-2.197.59-4.594-1.26-5.356-4.132-.761-2.873.404-5.678 2.597-6.267 2.193-.589 4.594 1.26 5.356 4.133.765 2.873-.4 5.677-2.597 6.266z" fill="#568B3E"/><path d="M45.318 18.538c-1.808.485-3.784-1.038-4.41-3.403-.625-2.365.331-4.672 2.14-5.161 1.807-.49 3.783 1.038 4.408 3.403.626 2.365-.33 4.676-2.138 5.161z" fill="#CEE298"/><path d="M44.991 17.315c-1.291.348-2.7-.739-3.149-2.43-.448-1.69.236-3.339 1.527-3.683 1.292-.345 2.7.739 3.15 2.429.448 1.685-.236 3.335-1.528 3.684z" fill="#C4DC72"/><path d="M50.624 8.687c-2.524-1.06-5.27-.236-6.131 1.84-.861 2.075.49 4.617 3.013 5.677 2.524 1.06 5.27.236 6.131-1.84.861-2.075-.485-4.617-3.013-5.677z" fill="#1E5F30"/><path d="M53.81 13.961c-.862 2.076-3.603 2.9-6.132 1.84-2.523-1.06-3.874-3.602-3.013-5.678.861-2.075 3.602-2.9 6.13-1.84 2.525 1.061 3.875 3.603 3.014 5.678z" fill="#568B3E"/><path d="M53.034 13.536c-.706 1.708-2.968 2.387-5.047 1.513-2.08-.87-3.19-2.963-2.484-4.672.707-1.708 2.968-2.388 5.048-1.513 2.08.874 3.195 2.963 2.483 4.671z" fill="#CEE298"/><path d="M52.191 13.182c-.548 1.328-2.301 1.853-3.915 1.174-1.613-.675-2.474-2.302-1.925-3.625.548-1.323 2.302-1.854 3.915-1.174 1.613.675 2.474 2.297 1.925 3.625z" fill="#C4DC72"/><path d="M51.1 14.763c-2.692.508-4.536 2.71-4.124 4.921.413 2.212 2.927 3.594 5.614 3.086 2.692-.507 4.536-2.71 4.124-4.92-.413-2.212-2.923-3.594-5.614-3.087z" fill="#1E5F30"/><path d="M56.637 17.165c.412 2.211-1.437 4.413-4.124 4.92-2.691.508-5.202-.874-5.614-3.085-.412-2.211 1.437-4.413 4.123-4.92 2.688-.508 5.202.874 5.615 3.085z" fill="#4D803B"/><path d="M55.758 17.233c.34 1.822-1.183 3.634-3.394 4.05-2.216.418-4.282-.72-4.622-2.537-.34-1.821 1.183-3.634 3.394-4.05 2.211-.422 4.282.715 4.622 2.537z" fill="#B7CE7A"/><path d="M55.05 17.364c.282 1.5-.973 2.995-2.795 3.335-1.822.345-3.53-.593-3.806-2.093-.281-1.5.974-2.995 2.796-3.335 1.821-.345 3.525.593 3.806 2.093z" fill="#B3CA62"/><path opacity=".2" d="M34.529 20.903c3.468 0 6.28-1.566 6.28-3.498 0-1.932-2.812-3.498-6.28-3.498-3.469 0-6.28 1.566-6.28 3.498 0 1.932 2.811 3.498 6.28 3.498z" fill="#212121"/><path d="M46.886 16.24c-2.751-1.146-5.579-.62-6.317 1.174-.739 1.795.893 4.178 3.639 5.324 2.75 1.147 5.578.621 6.316-1.173.739-1.795-.893-4.178-3.639-5.324z" fill="#1E5F30"/><path d="M50.696 20.713c-.738 1.794-3.566 2.32-6.316 1.174-2.75-1.147-4.378-3.53-3.639-5.325.739-1.794 3.566-2.32 6.317-1.173 2.75 1.146 4.377 3.53 3.638 5.324z" fill="#568B3E"/><path d="M49.849 20.269c-.607 1.477-2.936 1.908-5.197.965-2.261-.942-3.603-2.905-2.996-4.382.608-1.477 2.937-1.907 5.198-.965 2.26.947 3.602 2.91 2.995 4.382z" fill="#F9EBBB"/><path d="M49.065 19.943c-.494 1.196-2.374 1.545-4.205.779-1.83-.761-2.914-2.352-2.424-3.543.494-1.197 2.374-1.545 4.205-.78 1.83.766 2.918 2.352 2.424 3.544z" fill="#DEE67C"/><path d="M51.054 21.887c-2.528.276-4.436 1.84-4.255 3.489.177 1.65 2.375 2.764 4.903 2.487 2.529-.276 4.436-1.84 4.255-3.489-.177-1.65-2.374-2.764-4.903-2.487z" fill="#1E5F30"/><path opacity=".2" d="M56.061 24.923c.177 1.649-1.726 3.212-4.255 3.489-2.528.276-4.726-.834-4.902-2.488-.177-1.65 1.726-3.213 4.254-3.49 2.529-.276 4.722.84 4.903 2.489z" fill="#212121"/><path d="M55.866 23.871c.177 1.65-1.726 3.213-4.254 3.49-2.529.276-4.727-.834-4.903-2.488-.177-1.65 1.726-3.213 4.255-3.49 2.528-.276 4.726.839 4.902 2.488z" fill="#568B3E"/><path d="M55.05 23.89c.146 1.359-1.422 2.646-3.502 2.872-2.08.227-3.888-.689-4.037-2.048-.145-1.36 1.423-2.646 3.502-2.873 2.08-.226 3.888.69 4.038 2.048z" fill="#F9EBBB"/><path d="M54.33 23.971c.118 1.101-1.15 2.139-2.832 2.325-1.685.185-3.144-.558-3.267-1.654-.117-1.101 1.151-2.14 2.832-2.325 1.686-.186 3.145.553 3.267 1.654z" fill="#DEE67C"/><path d="M29.794 17.346c-1.627-1.857-1.595-3.928-1.632-4.522-.127-2.111 1.034-2.256 3.462-3.235 3.113-1.255 9.733-1.822 9.928 1.083.267 3.996-1.427 6.797-5.152 8.251-2.773 1.079-5.134.1-6.606-1.577z" fill="#CCB795"/><path d="M28.584 14.727c-1.341-2.583-.068-5.614 3.045-6.87 3.113-1.254 8.605-.747 9.683 1.958 1.079 2.706-2.478 6.951-5.727 7.776-3.467.874-5.791-.535-7.001-2.864z" fill="url(#paint21_radial_1305_249)"/><path d="M30.5 13.662c-.661-1.658-.04-3.443 1.867-4.214 1.908-.77 4.051-.28 4.713 1.378.661 1.658-.376 3.82-2.288 4.59-1.908.77-3.635-.095-4.292-1.754z" fill="url(#paint22_radial_1305_249)"/><path opacity=".2" d="M34.529 31.035c3.468 0 6.28-1.566 6.28-3.498 0-1.932-2.812-3.498-6.28-3.498-3.469 0-6.28 1.566-6.28 3.498 0 1.932 2.811 3.498 6.28 3.498z" fill="#212121"/><path d="M29.794 27.823c-1.627-1.858-1.595-3.93-1.632-4.523-.127-2.111 1.034-2.256 3.462-3.235 3.113-1.255 9.733-1.822 9.928 1.083.267 3.997-1.427 6.797-5.152 8.251-2.773 1.079-5.134.1-6.606-1.576z" fill="#CCB795"/><path d="M28.584 25.203c-1.341-2.582-.068-5.614 3.045-6.869s8.605-.748 9.683 1.958c1.079 2.705-2.478 6.95-5.727 7.775-3.467.875-5.791-.53-7.001-2.864z" fill="url(#paint23_radial_1305_249)"/><path d="M30.5 24.139c-.661-1.659-.04-3.444 1.867-4.215 1.908-.77 4.051-.28 4.713 1.378.661 1.659-.376 3.82-2.288 4.59-1.908.77-3.635-.095-4.292-1.753z" fill="url(#paint24_radial_1305_249)"/><defs><radialGradient id="paint1_radial_1305_249" cx="0" cy="0" r="1" gradientUnits="userSpaceOnUse" gradientTransform="translate(22.658 31.834) scale(19.2064)"><stop offset=".409" stop-color="#fff"/><stop offset=".724" stop-color="#ECEFF0"/><stop offset=".965" stop-color="#D0D8DC"/></radialGradient><radialGradient id="paint2_radial_1305_249" cx="0" cy="0" r="1" gradientUnits="userSpaceOnUse" gradientTransform="translate(22.175 34.757) scale(17.7642)"><stop offset=".228" stop-color="#fff"/><stop offset=".63" stop-color="#ECEFF0"/><stop offset=".965" stop-color="#D0D8DC"/></radialGradient><radialGradient id="paint3_radial_1305_249" cx="0" cy="0" r="1" gradientUnits="userSpaceOnUse" gradientTransform="translate(22.658 31.834) scale(19.2064)"><stop offset=".409" stop-color="#fff"/><stop offset=".724" stop-color="#ECEFF0"/><stop offset=".965" stop-color="#D0D8DC"/></radialGradient><radialGradient id="paint4_radial_1305_249" cx="0" cy="0" r="1" gradientUnits="userSpaceOnUse" gradientTransform="matrix(2.04183 0 0 2.33605 22.244 35.11)"><stop offset=".138" stop-color="#F47C20"/><stop offset=".882" stop-color="#E45325"/></radialGradient><radialGradient id="paint5_radial_1305_249" cx="0" cy="0" r="1" gradientUnits="userSpaceOnUse" gradientTransform="matrix(7.31172 0 0 5.9469 17.076 10.026)"><stop offset=".053" stop-color="#FFCB28"/><stop offset="1" stop-color="#F9A01B"/></radialGradient><radialGradient id="paint8_radial_1305_249" cx="0" cy="0" r="1" gradientUnits="userSpaceOnUse" gradientTransform="matrix(7.31172 0 0 5.9469 17.076 15.473)"><stop offset=".057" stop-color="#FFCB28"/><stop offset="1" stop-color="#F9A01B"/></radialGradient><radialGradient id="paint12_radial_1305_249" cx="0" cy="0" r="1" gradientUnits="userSpaceOnUse" gradientTransform="matrix(7.31172 0 0 5.9469 17.076 21.42)"><stop offset=".06" stop-color="#FFCB28"/><stop offset="1" stop-color="#F9A01B"/></radialGradient><radialGradient id="paint17_radial_1305_249" cx="0" cy="0" r="1" gradientUnits="userSpaceOnUse" gradientTransform="translate(53.005 35.811) scale(.7207)"><stop offset=".204" stop-color="#8BC249"/><stop offset="1" stop-color="#679F42"/></radialGradient><radialGradient id="paint18_radial_1305_249" cx="0" cy="0" r="1" gradientUnits="userSpaceOnUse" gradientTransform="translate(43.602 40.426) scale(.7207)"><stop offset=".204" stop-color="#8BC249"/><stop offset="1" stop-color="#679F42"/></radialGradient><radialGradient id="paint19_radial_1305_249" cx="0" cy="0" r="1" gradientUnits="userSpaceOnUse" gradientTransform="translate(51.589 41.484) scale(.7207)"><stop offset=".204" stop-color="#8BC249"/><stop offset="1" stop-color="#679F42"/></radialGradient><radialGradient id="paint20_radial_1305_249" cx="0" cy="0" r="1" gradientUnits="userSpaceOnUse" gradientTransform="translate(48.93 46.378) scale(.7207)"><stop offset=".204" stop-color="#8BC249"/><stop offset="1" stop-color="#679F42"/></radialGradient><radialGradient id="paint21_radial_1305_249" cx="0" cy="0" r="1" gradientUnits="userSpaceOnUse" gradientTransform="matrix(11.9479 0 0 12.0231 31.903 9.877)"><stop offset=".449" stop-color="#FFF3E1"/><stop offset="1" stop-color="#FFE0B2"/></radialGradient><radialGradient id="paint22_radial_1305_249" cx="0" cy="0" r="1" gradientUnits="userSpaceOnUse" gradientTransform="matrix(3.40261 0 0 3.42404 33.823 12.677)"><stop stop-color="#F36E21"/><stop offset="1" stop-color="#FAAA43"/></radialGradient><radialGradient id="paint23_radial_1305_249" cx="0" cy="0" r="1" gradientUnits="userSpaceOnUse" gradientTransform="matrix(11.9479 0 0 12.0231 31.903 20.353)"><stop offset=".449" stop-color="#FFF3E1"/><stop offset="1" stop-color="#FFE0B2"/></radialGradient><radialGradient id="paint24_radial_1305_249" cx="0" cy="0" r="1" gradientUnits="userSpaceOnUse" gradientTransform="matrix(3.40261 0 0 3.42404 33.823 23.153)"><stop stop-color="#F36E21"/><stop offset="1" stop-color="#FAAA43"/></radialGradient><linearGradient id="paint0_linear_1305_249" x1="8.914" y1="5.394" x2="56.189" y2="52.67" gradientUnits="userSpaceOnUse"><stop offset=".224" stop-color="#434343"/><stop offset=".562" stop-color="#323535"/><stop offset=".9" stop-color="#404141"/></linearGradient><linearGradient id="paint6_linear_1305_249" x1="17.083" y1="19.318" x2="17.083" y2="11.599" gradientUnits="userSpaceOnUse"><stop offset=".03" stop-color="#F37021"/><stop offset="1" stop-color="#F9A01B"/></linearGradient><linearGradient id="paint7_linear_1305_249" x1="17.236" y1="10.644" x2="17.236" y2="18.765" gradientUnits="userSpaceOnUse"><stop stop-color="#BFCA33"/><stop offset=".867" stop-color="#679F42"/></linearGradient><linearGradient id="paint9_linear_1305_249" x1="17.083" y1="24.765" x2="17.083" y2="17.047" gradientUnits="userSpaceOnUse"><stop offset=".03" stop-color="#F37021"/><stop offset="1" stop-color="#F9A01B"/></linearGradient><linearGradient id="paint10_linear_1305_249" x1="17.027" y1="16.242" x2="17.027" y2="24.364" gradientUnits="userSpaceOnUse"><stop stop-color="#BFCA33"/><stop offset=".867" stop-color="#679F42"/></linearGradient><linearGradient id="paint11_linear_1305_249" x1="17.024" y1="23.533" x2="17.024" y2="18.145" gradientUnits="userSpaceOnUse"><stop stop-color="#346A34" stop-opacity=".6"/><stop offset=".927" stop-color="#679F42" stop-opacity="0"/></linearGradient><linearGradient id="paint13_linear_1305_249" x1="17.083" y1="28.543" x2="17.083" y2="22.994" gradientUnits="userSpaceOnUse"><stop offset=".03" stop-color="#F37021"/><stop offset="1" stop-color="#F9A01B"/></linearGradient><linearGradient id="paint14_linear_1305_249" x1="17.026" y1="22.046" x2="17.026" y2="30.167" gradientUnits="userSpaceOnUse"><stop stop-color="#BFCA33"/><stop offset=".867" stop-color="#679F42"/></linearGradient><linearGradient id="paint15_linear_1305_249" x1="16.894" y1="28.116" x2="16.894" y2="23.854" gradientUnits="userSpaceOnUse"><stop stop-color="#346A34" stop-opacity=".6"/><stop offset=".927" stop-color="#679F42" stop-opacity="0"/></linearGradient><linearGradient id="paint16_linear_1305_249" x1="48.215" y1="46.634" x2="48.215" y2="32.038" gradientUnits="userSpaceOnUse"><stop stop-color="#8D401E"/><stop offset=".649" stop-color="#BB5B27"/></linearGradient></defs></svg>